<?xml version="1.0" standalone="no"?>
<!DOCTYPE svg PUBLIC "-//W3C//DTD SVG 20010904//EN"
 "http://www.w3.org/TR/2001/REC-SVG-20010904/DTD/svg10.dtd">
<svg version="1.0" xmlns="http://www.w3.org/2000/svg"
 width="1024.000000pt" height="357.000000pt" viewBox="0 0 1024.000000 357.000000"
 preserveAspectRatio="xMidYMid meet">

<g transform="translate(0.000000,357.000000) scale(0.100000,-0.100000)"
fill="#000000" stroke="none">
<path d="M408 3163 c-5 -6 -8 -24 -6 -39 3 -23 10 -29 53 -41 294 -81 637
-199 831 -286 407 -183 692 -414 817 -663 65 -129 81 -201 81 -364 0 -124 -3
-156 -23 -220 -75 -241 -240 -436 -533 -632 -207 -138 -580 -309 -926 -423
l-84 -27 7 -37 c4 -20 8 -37 10 -39 7 -7 394 21 530 39 280 37 563 104 780
185 97 37 327 152 405 204 248 165 404 332 515 555 68 135 94 246 95 392 1
411 -273 764 -815 1055 -66 35 -147 76 -180 90 -274 120 -754 215 -1260 248
-249 16 -286 16 -297 3z"/>
<path d="M7638 2590 c-27 -5 -63 -18 -82 -29 -44 -28 -82 -26 -148 4 -29 14
-69 24 -88 24 -32 -1 -31 -2 11 -9 57 -10 85 -23 125 -62 l31 -29 34 32 c48
45 88 59 176 60 57 1 70 3 48 9 -38 10 -49 10 -107 0z"/>
<path d="M8257 2580 c-32 -10 -77 -31 -99 -47 -42 -28 -118 -133 -118 -162 0
-8 11 7 25 35 33 64 61 95 116 127 60 34 113 47 203 48 75 1 165 -20 196 -46
8 -6 22 -15 30 -20 8 -4 2 4 -15 18 -70 59 -229 81 -338 47z"/>
<path d="M9632 2579 c-49 -17 -100 -46 -131 -77 -8 -7 -24 -20 -37 -29 -28
-18 -50 -6 -57 30 -2 12 -5 -33 -6 -100 -1 -92 -5 -125 -16 -136 -13 -13 -13
-16 0 -21 13 -4 15 -45 17 -253 l2 -248 6 285 c5 256 8 291 27 342 27 74 54
111 107 147 71 49 133 64 244 59 98 -4 127 -13 202 -65 l25 -17 -19 22 c-11
12 -44 34 -75 49 -73 35 -207 41 -289 12z"/>
<path d="M4971 2579 c-53 -16 -32 -18 34 -4 36 8 48 13 30 13 -16 0 -45 -4
-64 -9z"/>
<path d="M5133 2583 c9 -2 23 -2 30 0 6 3 -1 5 -18 5 -16 0 -22 -2 -12 -5z"/>
<path d="M7233 2583 c9 -2 25 -2 35 0 9 3 1 5 -18 5 -19 0 -27 -2 -17 -5z"/>
<path d="M9018 2582 c-167 -1 -268 -6 -268 -12 0 -6 112 -10 307 -10 174 0
303 4 298 9 -17 14 -60 16 -337 13z"/>
<path d="M3240 2570 c-39 -6 -34 -7 37 -8 45 -1 85 2 88 8 7 11 -53 11 -125 0z"/>
<path d="M3670 2568 c0 -5 46 -7 103 -6 106 1 94 6 -31 10 -39 2 -72 0 -72 -4z"/>
<path d="M4480 2570 l-85 -6 98 -2 c63 -1 96 2 92 8 -3 6 -9 9 -13 8 -4 -1
-45 -5 -92 -8z"/>
<path d="M5188 2573 c7 -3 16 -2 19 1 4 3 -2 6 -13 5 -11 0 -14 -3 -6 -6z"/>
<path d="M5555 2570 c3 -6 50 -10 106 -10 64 0 98 4 94 10 -3 6 -50 10 -106
10 -64 0 -98 -4 -94 -10z"/>
<path d="M5980 2570 c0 -6 41 -10 103 -10 69 0 97 3 87 10 -20 13 -190 13
-190 0z"/>
<path d="M6435 2570 c4 -6 53 -10 118 -9 72 1 103 4 87 9 -38 12 -212 12 -205
0z"/>
<path d="M7160 2565 c-7 -9 -20 -13 -29 -10 -8 3 -12 3 -9 -1 4 -4 -4 -15 -17
-26 -14 -11 -30 -29 -36 -40 -7 -13 3 -7 26 15 20 20 56 45 78 56 30 15 36 21
21 21 -12 0 -27 -7 -34 -15z"/>
<path d="M7810 2564 c19 -8 51 -29 70 -47 l35 -32 -30 33 c-31 35 -74 62 -97
62 -7 -1 3 -8 22 -16z"/>
<path d="M3902 2551 c9 -15 5 -30 -26 -85 -36 -64 -44 -95 -16 -61 11 13 15
13 30 -5 17 -20 17 -19 24 17 3 21 6 61 6 90 0 32 5 53 13 56 6 3 0 6 -16 6
-24 1 -26 -1 -15 -18z"/>
<path d="M4038 2563 c23 -2 61 -2 85 0 23 2 4 4 -43 4 -47 0 -66 -2 -42 -4z"/>
<path d="M5230 2560 c8 -5 20 -10 25 -10 6 0 3 5 -5 10 -8 5 -19 10 -25 10 -5
0 -3 -5 5 -10z"/>
<path d="M4974 2532 c-28 -10 -63 -28 -79 -41 -46 -36 -93 -108 -104 -162 -6
-29 -11 -173 -11 -340 l0 -290 123 3 122 3 5 293 c5 307 6 312 50 312 53 0 60
-45 59 -350 l-1 -255 121 -3 121 -3 0 298 c0 306 -5 356 -43 430 -54 103 -225
153 -363 105z"/>
<path d="M7202 2537 c-53 -20 -103 -66 -128 -121 -24 -51 -24 -54 -24 -383 l0
-333 120 0 120 0 0 278 c0 292 5 327 45 327 12 0 22 -9 26 -25 4 -14 7 -150 8
-302 l1 -278 120 0 120 0 0 289 c0 254 2 292 16 306 9 9 23 14 31 11 8 -3 17
-6 19 -6 2 0 4 -135 4 -300 l0 -300 125 0 125 0 0 313 c0 336 -5 385 -51 452
-32 48 -108 85 -173 85 -80 0 -126 -18 -174 -65 l-43 -43 -44 43 c-61 62 -158
82 -243 52z"/>
<path d="M8269 2536 c-78 -21 -143 -79 -181 -161 -22 -48 -23 -62 -26 -362
l-4 -313 126 0 126 0 0 100 0 100 35 0 35 0 0 110 0 110 -35 0 -35 0 0 75 c0
62 4 79 20 95 24 24 38 25 68 4 22 -15 22 -17 22 -305 l0 -289 126 0 125 0 -3
323 c-5 364 -9 388 -79 458 -63 63 -201 87 -320 55z"/>
<path d="M9655 2536 c-65 -21 -101 -43 -138 -87 -64 -74 -67 -96 -67 -441 l0
-308 120 0 120 0 0 100 0 100 35 0 35 0 0 110 0 110 -35 0 -35 0 0 64 c0 36 4
76 9 89 16 42 79 48 97 9 4 -9 8 -143 9 -297 l2 -280 122 -3 122 -3 -3 328 -3
328 -26 56 c-31 65 -77 104 -145 125 -57 17 -165 17 -219 0z"/>
<path d="M4864 2518 l-19 -23 23 19 c12 11 22 21 22 23 0 8 -8 2 -26 -19z"/>
<path d="M5287 2529 c7 -7 15 -10 18 -7 3 3 -2 9 -12 12 -14 6 -15 5 -6 -5z"/>
<path d="M3160 2115 l0 -415 120 0 120 0 0 415 0 415 -120 0 -120 0 0 -415z"/>
<path d="M3523 2351 c-57 -99 -103 -186 -103 -193 0 -7 41 -113 91 -235 l92
-223 133 0 c74 0 134 4 134 9 0 4 -47 106 -105 225 -100 207 -104 218 -91 244
8 15 57 100 109 190 l95 162 -126 0 -127 0 -102 -179z"/>
<path d="M3950 2232 c0 -339 5 -375 68 -444 49 -55 107 -79 203 -85 l79 -6 0
122 0 121 -29 0 c-16 0 -39 9 -52 19 l-24 19 -3 276 -3 276 -119 0 -120 0 0
-298z"/>
<path d="M4380 2115 l0 -415 125 0 125 0 0 415 0 415 -125 0 -125 0 0 -415z"/>
<path d="M5530 2115 l0 -415 125 0 125 0 0 415 0 415 -125 0 -125 0 0 -415z"/>
<path d="M5950 2115 l0 -415 120 0 120 0 0 415 0 415 -120 0 -120 0 0 -415z"/>
<path d="M6309 2345 l-106 -185 93 -228 93 -227 135 -3 c75 -1 136 1 136 6 0
5 -47 107 -105 226 -58 119 -105 218 -105 220 0 3 45 82 101 176 55 95 103
179 106 186 4 11 -18 14 -119 14 l-124 0 -105 -185z"/>
<path d="M8742 2413 l3 -118 92 -3 93 -3 2 -292 3 -292 123 -3 122 -3 0 296 0
295 95 0 95 0 0 120 0 120 -315 0 -316 0 3 -117z"/>
<path d="M6345 2494 c-9 -14 -15 -27 -13 -30 2 -2 12 10 22 26 21 37 15 40 -9
4z"/>
<path d="M5331 2493 c7 -12 15 -20 18 -17 3 2 -3 12 -13 22 -17 16 -18 16 -5
-5z"/>
<path d="M8702 2497 c-1 -10 -6 -16 -11 -13 -5 4 -11 0 -14 -6 -3 -10 -9 -8
-24 5 -26 23 -41 22 -19 -2 28 -31 56 -118 63 -197 6 -70 7 -72 19 -48 8 14
11 31 6 38 -4 6 -10 63 -13 126 -3 63 -6 107 -7 97z"/>
<path d="M5495 2115 c0 -214 1 -301 2 -192 2 109 2 285 0 390 -1 106 -2 17 -2
-198z"/>
<path d="M5815 2125 c0 -209 1 -296 2 -193 2 103 2 274 0 380 -1 106 -2 22 -2
-187z"/>
<path d="M4809 2463 c-13 -16 -12 -17 4 -4 9 7 17 15 17 17 0 8 -8 3 -21 -13z"/>
<path d="M3512 2420 c-27 -35 -49 -39 -61 -8 -6 17 -9 10 -14 -33 -4 -30 -7
-67 -7 -84 0 -25 2 -27 13 -15 15 16 100 170 94 170 -2 0 -13 -13 -25 -30z"/>
<path d="M6314 2435 c-4 -8 -11 -12 -18 -8 -6 3 -8 3 -4 -2 5 -5 -2 -15 -14
-23 -19 -14 -22 -13 -33 2 -11 14 -13 11 -19 -21 -3 -21 -6 -58 -6 -83 0 -40
1 -43 13 -25 23 34 96 175 91 175 -2 0 -7 -7 -10 -15z"/>
<path d="M1150 2405 c-141 -38 -286 -137 -369 -249 -221 -299 -148 -728 160
-937 156 -105 362 -140 539 -92 115 32 200 82 291 173 142 141 193 266 193
465 0 103 -4 131 -27 201 -65 196 -218 351 -414 419 -98 34 -284 44 -373 20z
m570 -356 c209 -98 258 -362 100 -541 -58 -67 -143 -102 -246 -103 -72 0 -87
3 -148 34 -80 41 -137 102 -164 175 -30 79 -35 143 -17 206 8 30 17 60 18 66
6 26 75 104 117 133 71 48 115 61 205 58 61 -2 93 -8 135 -28z"/>
<path d="M4664 2065 c0 -170 2 -242 3 -158 2 83 2 223 0 310 -1 87 -3 19 -3
-152z"/>
<path d="M7962 2030 c0 -173 4 -304 8 -290 10 32 10 535 0 575 -4 17 -8 -112
-8 -285z"/>
<path d="M8021 2290 c-12 -57 -15 -500 -3 -540 4 -14 9 112 12 280 3 168 4
306 3 308 0 2 -6 -20 -12 -48z"/>
<path d="M4742 2270 c0 -14 2 -19 5 -12 2 6 2 18 0 25 -3 6 -5 1 -5 -13z"/>
<path d="M5411 2274 c0 -11 3 -14 6 -6 3 7 2 16 -1 19 -3 4 -6 -2 -5 -13z"/>
<path d="M5067 2274 c-4 -4 -7 -135 -7 -291 0 -277 0 -283 20 -283 20 0 20 5
18 287 -3 272 -7 311 -31 287z"/>
<path d="M8352 2268 c-7 -7 -12 -36 -12 -65 0 -50 1 -53 25 -53 25 0 26 1 23
62 -3 62 -14 78 -36 56z"/>
<path d="M9736 2264 c-10 -10 -16 -33 -16 -65 0 -46 2 -49 25 -49 24 0 25 3
25 59 0 65 -9 80 -34 55z"/>
<path d="M7644 1975 c0 -165 2 -234 3 -153 2 81 2 216 0 300 -1 84 -3 18 -3
-147z"/>
<path d="M7320 1985 c0 -177 4 -275 10 -275 6 0 10 98 10 275 0 177 -4 275
-10 275 -6 0 -10 -98 -10 -275z"/>
<path d="M8872 2247 c15 -12 17 -41 18 -247 0 -129 3 -236 5 -239 3 -2 5 109
5 247 l0 252 -22 0 c-21 -1 -21 -2 -6 -13z"/>
<path d="M9210 2233 c0 -14 1 -24 3 -22 1 2 11 14 21 27 19 22 19 22 -2 22
-17 0 -22 -6 -22 -27z"/>
<path d="M4744 2010 c0 -113 2 -159 3 -102 2 56 2 148 0 205 -1 56 -3 10 -3
-103z"/>
<path d="M3712 2180 c-15 -25 -15 -47 0 -56 8 -5 9 -2 5 10 -4 10 -2 27 4 38
14 26 7 33 -9 8z"/>
<path d="M6494 2166 c-3 -8 -1 -22 4 -32 7 -13 9 -10 8 15 -1 34 -4 38 -12 17z"/>
<path d="M3726 2097 c3 -10 9 -15 12 -12 3 3 0 11 -7 18 -10 9 -11 8 -5 -6z"/>
<path d="M6521 2080 c14 -31 19 -36 19 -24 0 6 -7 19 -16 30 -14 18 -14 18 -3
-6z"/>
<path d="M4340 2046 c0 -46 -67 -67 -95 -30 -14 18 -14 18 -15 -7 0 -29 15
-39 60 -39 16 0 30 -7 34 -16 3 -9 6 -74 6 -145 0 -79 4 -129 10 -129 6 0 10
72 10 195 0 107 -2 195 -5 195 -3 0 -5 -11 -5 -24z"/>
<path d="M6551 2025 c0 -5 6 -21 14 -35 8 -14 14 -20 14 -15 0 6 -6 21 -14 35
-8 14 -14 21 -14 15z"/>
<path d="M3431 1973 c1 -27 4 -75 8 -108 6 -50 8 -56 15 -34 8 29 31 32 48 8
8 -12 9 -12 5 1 -13 42 -69 180 -73 180 -2 0 -4 -21 -3 -47z"/>
<path d="M6221 1968 c0 -53 16 -150 18 -115 0 10 6 15 11 12 6 -3 10 0 10 7 1
8 6 6 15 -6 8 -11 15 -17 15 -14 0 11 -62 168 -66 168 -2 0 -4 -24 -3 -52z"/>
<path d="M3770 2005 c0 -5 5 -17 10 -25 5 -8 10 -10 10 -5 0 6 -5 17 -10 25
-5 8 -10 11 -10 5z"/>
<path d="M6580 1954 c0 -5 7 -18 15 -28 8 -11 15 -16 15 -10 0 5 -7 18 -15 28
-8 11 -15 16 -15 10z"/>
<path d="M3816 1907 c3 -10 9 -15 12 -12 3 3 0 11 -7 18 -10 9 -11 8 -5 -6z"/>
<path d="M6616 1887 c3 -10 9 -15 12 -12 3 3 0 11 -7 18 -10 9 -11 8 -5 -6z"/>
<path d="M3840 1860 c6 -11 13 -20 16 -20 2 0 0 9 -6 20 -6 11 -13 20 -16 20
-2 0 0 -9 6 -20z"/>
<path d="M8340 1793 c0 -76 0 -78 25 -78 25 0 25 2 25 78 0 76 0 77 -25 77
-25 0 -25 -1 -25 -77z"/>
<path d="M9720 1796 c0 -69 11 -104 23 -74 4 10 6 10 6 1 1 -7 6 -13 11 -13 6
0 10 33 10 80 0 79 0 80 -25 80 -24 0 -25 -2 -25 -74z"/>
<path d="M3860 1816 c0 -8 4 -17 9 -20 5 -4 7 3 4 14 -6 23 -13 26 -13 6z"/>
<path d="M6661 1790 c14 -31 19 -36 19 -24 0 6 -7 19 -16 30 -14 18 -14 18 -3
-6z"/>
<path d="M3880 1771 c0 -6 4 -13 10 -16 6 -3 7 1 4 9 -7 18 -14 21 -14 7z"/>
<path d="M4165 1661 c15 -6 8 -9 -28 -14 -105 -15 -230 -110 -284 -218 -13
-24 -23 -39 -24 -34 0 6 -4 1 -9 -10 -6 -15 -8 -9 -8 22 0 58 -42 142 -87 172
-63 42 -123 51 -347 51 -131 0 -209 -4 -213 -10 -4 -6 -7 -164 -8 -351 -2
-271 1 -343 11 -351 18 -15 433 -20 489 -6 61 15 126 76 154 143 12 30 25 55
28 54 3 0 25 -27 48 -59 81 -113 181 -165 318 -164 143 2 253 66 336 199 l38
59 10 -28 c6 -15 11 -38 11 -52 0 -62 45 -120 115 -150 59 -25 249 -30 343
-10 124 26 171 71 186 179 4 26 13 47 19 47 7 0 26 -23 42 -51 36 -62 109
-129 173 -160 70 -35 201 -39 288 -10 55 19 73 21 127 13 36 -6 72 -6 85 -1
16 6 30 4 47 -7 21 -13 46 -15 162 -10 76 4 179 3 230 -1 95 -9 143 -1 143 23
0 19 6 18 29 -5 16 -16 33 -18 145 -16 82 1 131 6 139 14 6 6 13 46 15 87 l4
76 30 -29 c16 -15 48 -54 70 -85 23 -32 46 -59 52 -59 45 -6 215 -4 233 2 20
7 21 14 25 188 4 207 13 237 49 155 71 -163 159 -333 177 -343 11 -6 70 -11
130 -11 91 0 111 3 125 18 16 18 125 235 170 340 48 112 57 84 50 -151 -3
-110 -1 -177 6 -187 8 -12 38 -15 143 -17 73 -1 140 1 150 3 9 3 22 19 28 37
l12 32 14 -32 c8 -18 20 -34 27 -34 6 -1 107 -3 222 -4 116 -1 220 -5 232 -9
17 -5 29 -1 49 19 l26 26 21 -22 c19 -21 26 -21 136 -16 64 4 168 3 231 -1
111 -8 160 -2 160 21 0 5 7 3 17 -4 21 -18 528 -23 542 -5 5 6 17 58 26 115
l17 105 -27 24 -28 24 12 91 c21 152 24 209 12 272 -6 34 -18 65 -28 73 -24
17 -508 17 -520 0 -4 -7 -8 -105 -8 -218 l0 -204 -75 -12 c-41 -7 -96 -13
-122 -13 -46 -1 -47 0 -54 34 -3 20 -2 115 4 212 7 114 7 183 1 195 -9 16 -25
18 -149 18 -117 0 -141 -3 -156 -17 -15 -16 -16 -36 -10 -208 3 -104 3 -195
-1 -201 -9 -11 -145 -34 -205 -34 -32 0 -39 4 -44 26 -7 27 3 356 12 385 3 9
-3 24 -11 33 -14 13 -41 16 -155 16 -132 0 -140 -1 -154 -22 l-16 -22 -16 22
c-14 21 -22 22 -158 22 -97 0 -146 -4 -154 -12 -9 -9 -15 -9 -24 0 -8 8 -57
12 -155 12 l-142 0 -17 -32 -16 -32 -14 32 -13 32 -139 0 c-102 0 -143 -4
-157 -14 -16 -11 -21 -11 -33 0 -18 19 -272 20 -290 2 -7 -7 -12 -38 -12 -69
0 -82 -6 -94 -34 -66 -13 12 -44 52 -70 90 -44 62 -50 67 -85 67 -77 0 -206
-22 -223 -37 -17 -15 -20 -15 -41 5 -23 21 -31 22 -264 22 -133 0 -248 -3
-257 -6 -14 -5 -16 -28 -16 -148 0 -79 -2 -145 -4 -147 -2 -2 -31 -2 -64 -1
-77 5 -84 20 -37 80 45 58 45 88 -1 136 -57 59 -168 104 -263 108 -44 1 -44 2
14 8 l60 7 -62 1 c-41 1 -63 -2 -63 -9 0 -8 -5 -7 -15 1 -13 11 -14 10 -9 -4
4 -11 1 -16 -12 -16 -36 0 -140 -57 -182 -100 -23 -24 -55 -63 -70 -87 -43
-68 -51 -58 -49 57 2 80 -1 103 -13 110 -8 5 -74 10 -147 10 -136 0 -136 0
-168 -45 -14 -20 -14 -20 -15 2 0 12 -9 27 -19 33 -21 11 -258 14 -285 4 -13
-5 -16 -25 -16 -110 0 -77 -3 -104 -12 -104 -7 0 -31 28 -52 61 -56 86 -188
177 -260 180 -20 0 -21 1 -1 9 14 6 -2 9 -50 9 -43 0 -62 -3 -50 -8z m3499
-238 c-8 -69 -24 -78 -24 -14 0 27 4 52 9 55 4 3 7 18 4 33 l-3 28 10 -25 c6
-14 8 -46 4 -77z m-2725 -144 c3 -84 2 -91 -15 -87 -23 4 -29 46 -19 137 10
92 29 63 34 -50z m3409 6 c0 -33 -3 -80 -7 -105 -6 -33 -9 -12 -9 85 0 79 3
120 8 105 4 -14 8 -52 8 -85z m-4528 28 c0 -18 -4 -24 -14 -20 -11 4 -13 1
-10 -11 5 -16 5 -16 -5 0 -8 11 -8 25 -1 43 12 31 30 24 30 -12z m438 0 c18
-20 22 -33 18 -57 -15 -79 -115 -91 -146 -17 -15 37 2 79 40 98 32 16 59 8 88
-24z m1412 -42 c0 -79 -12 -97 -50 -78 -71 36 -51 147 26 147 23 0 24 -3 24
-69z m912 -56 c-3 -21 -9 -34 -16 -32 -17 5 -19 66 -5 112 l13 40 6 -42 c3
-23 4 -58 2 -78z"/>
</g>
</svg>
